# xmcd CD database file
#
# Track frame offsets:
#	150
#	19073
#	36070
#	53464
#	70303
#	88531
#	106369
#	125429
#	144365
#	164370
#	181064
#	200179
#	221209
#	242551
#
# Disc length: 3555 seconds
#
# Revision: 0
# Processed by: cddbd v1.5.2PL0 Copyright (c) Steve Scherf et al.
# Submitted via: CDex 1.51
#
DISCID=c10de10e
DTITLE=Zoé - Música de Fondo (MTV unplug)
DYEAR=2010
DGENRE=New Age
TTITLE0=Sombras
TTITLE1=Soñé
TTITLE2=Últimos Días
TTITLE3=No Me Destruyas
TTITLE4=Labios Rotos
TTITLE5=Dead
TTITLE6=Veneno
TTITLE7=Paula
TTITLE8=Infinito
TTITLE9=Via Lactea
TTITLE10=Poli/Love
TTITLE11=Luna
TTITLE12=Nada
TTITLE13=Nunca
EXTD=YEAR: 2010
EXTT0=
EXTT1=
EXTT2=
EXTT3=
EXTT4=
EXTT5=
EXTT6=
EXTT7=
EXTT8=
EXTT9=
EXTT10=
EXTT11=
EXTT12=
EXTT13=
PLAYORDER=
